#N canvas 147 111 639 366 12;
#X obj 200 60 metro 500;
#X obj 200 20 tgl 25 0 empty empty empty 17 7 0 10 #fcfcfc #000000
#000000 1 1;
#X obj 280 100 random 60;
#X obj 280 130 + 30;
#X obj 280 190 makenote 100 300;
#X obj 280 230 noteout;
#X floatatom 300 160 5 0 0 0 - - -, f 5;
#X connect 0 0 2 0;
#X connect 1 0 0 0;
#X connect 2 0 3 0;
#X connect 3 0 4 0;
#X connect 3 0 6 0;
#X connect 4 0 5 0;
