#N canvas 566 34 877 985 12;
#X obj 53 93 soundfiler;
#X msg 53 57 read -resize audio/bass.wav bass;
#N canvas 0 22 450 278 (subpatch) 0;
#X array bass 529200 float 2;
#X coords 0 1 529200 -1 200 140 1;
#X restore 52 145 graph;
#X obj 305 93 soundfiler;
#N canvas 0 22 450 278 (subpatch) 0;
#X array chords 529200 float 2;
#X coords 0 1 529200 -1 200 140 1 0 0;
#X restore 304 145 graph;
#X obj 587 92 soundfiler;
#N canvas 0 22 450 278 (subpatch) 0;
#X array drums 529200 float 2;
#X coords 0 1 529200 -1 200 140 1 0 0;
#X restore 586 144 graph;
#X msg 305 57 read -resize audio/chords.wav chords;
#X msg 587 56 read -resize audio/drums.wav drums;
#X obj 608 596 *~;
#X obj 643 524 hsl 162 19 0 127 0 0 empty empty empty -2 -10 0 12 #fcfcfc #000000 #000000 0 1;
#X obj 640 564 / 127;
#X obj 702 468 bng 19 250 50 0 empty empty empty 0 -10 0 12 #fcfcfc #000000 #000000;
#X obj 607 409 bng 19 250 50 0 empty empty empty 0 -10 0 12 #fcfcfc #000000 #000000;
#X obj 338 596 *~;
#X obj 373 524 hsl 162 19 0 127 0 0 empty empty empty -2 -10 0 12 #fcfcfc #000000 #000000 0 1;
#X obj 370 564 / 127;
#X obj 432 468 bng 19 250 50 0 empty empty empty 0 -10 0 12 #fcfcfc #000000 #000000;
#X obj 338 680 dac~;
#X obj 337 409 bng 19 250 50 0 empty empty empty 0 -10 0 12 #fcfcfc #000000 #000000;
#X obj 87 441 tabplay~ drums;
#X obj 88 596 *~;
#X obj 123 524 hsl 162 19 0 127 0 0 empty empty empty -2 -10 0 12 #fcfcfc #000000 #000000 0 1;
#X obj 120 564 / 127;
#X obj 182 468 bng 19 250 50 0 empty empty empty 0 -10 0 12 #fcfcfc #000000 #000000;
#X obj 87 409 bng 19 250 50 0 empty empty empty 0 -10 0 12 #fcfcfc #000000 #000000;
#X obj 399 326 r go;
#X obj 337 352 bng 19 250 50 0 empty empty empty 0 -10 0 12 #fcfcfc #000000 #000000;
#X obj 337 441 tabplay~ chords;
#X obj 607 441 tabplay~ drums;
#X connect 1 0 0 0;
#X connect 7 0 3 0;
#X connect 8 0 5 0;
#X connect 9 0 18 0;
#X connect 9 0 18 1;
#X connect 10 0 11 0;
#X connect 11 0 9 1;
#X connect 13 0 29 0;
#X connect 14 0 18 0;
#X connect 14 0 18 1;
#X connect 15 0 16 0;
#X connect 16 0 14 1;
#X connect 19 0 28 0;
#X connect 20 0 21 0;
#X connect 20 1 24 0;
#X connect 21 0 18 0;
#X connect 21 0 18 1;
#X connect 22 0 23 0;
#X connect 23 0 21 1;
#X connect 25 0 20 0;
#X connect 26 0 27 0;
#X connect 27 0 19 0;
#X connect 27 0 25 0;
#X connect 27 0 13 0;
#X connect 28 0 14 0;
#X connect 28 1 17 0;
#X connect 29 0 9 0;
#X connect 29 1 12 0;
