#N canvas 0 25 666 825 12;
#X floatatom 229 423 5 0 0 0 - - - 0;
#X msg 86 291 connect localhost 57120;
#X obj 229 350 list prepend send;
#X obj 229 374 list trim;
#X obj 229 399 netsend -u -b;
#X msg 149 319 disconnect;
#X obj 86 266 loadbang;
#X obj 279 288 oscformat /speed;
#X obj 260 220 hsl 162 19 0 1 0 1 empty empty zero\ to\ one -2 -10 1 12 #2f004d #9c00ff #ffffff 8000 1;
#X floatatom 298 253 5 0 0 0 - - - 0;
#X obj 450 219 hsl 162 19 0 1 0 1 empty empty zero\ to\ one -2 -10 1 12 #551312 #ff0400 #ffffff 8200 1;
#X floatatom 488 252 5 0 0 0 - - - 0;
#X obj 469 287 oscformat /volume;
#X connect 1 0 4 0;
#X connect 2 0 3 0;
#X connect 3 0 4 0;
#X connect 4 0 0 0;
#X connect 5 0 4 0;
#X connect 6 0 1 0;
#X connect 7 0 2 0;
#X connect 8 0 7 0;
#X connect 8 0 9 0;
#X connect 10 0 11 0;
#X connect 10 0 12 0;
#X connect 12 0 2 0;
